<?xml version="1.0" encoding="UTF-8" standalone="no"?>
<svg
   xmlns:dc="http://purl.org/dc/elements/1.1/"
   xmlns:cc="http://creativecommons.org/ns#"
   xmlns:rdf="http://www.w3.org/1999/02/22-rdf-syntax-ns#"
   xmlns:svg="http://www.w3.org/2000/svg"
   xmlns="http://www.w3.org/2000/svg"
   xmlns:sodipodi="http://sodipodi.sourceforge.net/DTD/sodipodi-0.dtd"
   xmlns:inkscape="http://www.inkscape.org/namespaces/inkscape"
   inkscape:export-ydpi="106.66666"
   inkscape:export-xdpi="106.66666"
   inkscape:export-filename="C:\Users\Jsmit\OneDrive\Desktop\images\Empire-Of-Ruin-large.png"
   version="1.1"
   id="Layer_1"
   x="0px"
   y="0px"
   width="900px"
   height="900px"
   viewBox="0 0 900 900"
   enable-background="new 0 0 900 900"
   xml:space="preserve"
   sodipodi:docname="Empire-Of-Ruin.svg"
   inkscape:version="1.0 (4035a4fb49, 2020-05-01)"><metadata
   id="metadata8"><rdf:RDF><cc:Work
       rdf:about=""><dc:format>image/svg+xml</dc:format><dc:type
         rdf:resource="http://purl.org/dc/dcmitype/StillImage" /></cc:Work></rdf:RDF></metadata><defs
   id="defs6" /><sodipodi:namedview
   inkscape:document-rotation="0"
   pagecolor="#ffffff"
   bordercolor="#666666"
   borderopacity="1"
   objecttolerance="10"
   gridtolerance="10"
   guidetolerance="10"
   inkscape:pageopacity="0"
   inkscape:pageshadow="2"
   inkscape:window-width="1920"
   inkscape:window-height="1017"
   id="namedview4"
   showgrid="false"
   inkscape:zoom="0.94444444"
   inkscape:cx="450"
   inkscape:cy="450"
   inkscape:window-x="-8"
   inkscape:window-y="1072"
   inkscape:window-maximized="1"
   inkscape:current-layer="Layer_1" />
<path
   id="path4332"
   fill="#9E1919"
   d="M0,0l140.05,238.551L21.797,215.412l140.306,182.876c-6.092,34.162-6.095,69.198,0,103.359  L21.797,684.524l118.253-23.14L0,900l238.551-140.049l-23.139,118.252l182.876-140.306c34.184,6.103,69.241,6.104,103.424,0  l182.877,140.306l-23.14-118.252L900,900L759.951,661.385l118.252,23.14L737.897,501.647c6.094-34.163,6.1-69.196,0-103.359  l140.306-182.876l-118.252,23.139L900,0L661.449,140.049l23.14-118.316L501.647,162.103c-17.071-3.045-34.356-4.601-51.647-4.603  c-17.292-0.001-34.576,1.563-51.647,4.603L215.412,21.733l23.139,118.316L0,0z M450,200.454  c63.887,0.005,127.772,24.35,176.484,73.062c97.424,97.424,97.412,255.557,0,352.969s-255.544,97.361-352.969-0.064  c-97.425-97.424-97.412-255.557,0-352.969C322.222,224.746,386.114,200.451,450,200.454z M450,274.09  c-45.034-0.001-90.056,17.124-124.39,51.457c-68.667,68.667-68.676,180.167,0,248.842c68.677,68.676,180.11,68.668,248.778,0  c68.668-68.666,68.676-180.166,0-248.842C540.051,291.208,495.035,274.093,450,274.09z"
   style="fill:#00002f;fill-opacity:1" />
</svg>
