<?xml version="1.0" encoding="UTF-8" standalone="no"?>
<svg
   xmlns:dc="http://purl.org/dc/elements/1.1/"
   xmlns:cc="http://creativecommons.org/ns#"
   xmlns:rdf="http://www.w3.org/1999/02/22-rdf-syntax-ns#"
   xmlns:svg="http://www.w3.org/2000/svg"
   xmlns="http://www.w3.org/2000/svg"
   xmlns:sodipodi="http://sodipodi.sourceforge.net/DTD/sodipodi-0.dtd"
   xmlns:inkscape="http://www.inkscape.org/namespaces/inkscape"
   sodipodi:docname="Hutt-Cartels.svg"
   inkscape:version="1.0 (4035a4fb49, 2020-05-01)"
   id="svg8"
   version="1.1"
   viewBox="0 0 210 297"
   height="297mm"
   width="210mm">
  <defs
     id="defs2" />
  <sodipodi:namedview
     inkscape:window-maximized="1"
     inkscape:window-y="1072"
     inkscape:window-x="-2"
     inkscape:window-height="1017"
     inkscape:window-width="1920"
     showgrid="false"
     inkscape:document-rotation="0"
     inkscape:current-layer="g847"
     inkscape:document-units="mm"
     inkscape:cy="328.15579"
     inkscape:cx="527.35925"
     inkscape:zoom="0.7"
     inkscape:pageshadow="2"
     inkscape:pageopacity="0.0"
     borderopacity="1.0"
     bordercolor="#666666"
     pagecolor="#ffffff"
     id="base" />
  <metadata
     id="metadata5">
    <rdf:RDF>
      <cc:Work
         rdf:about="">
        <dc:format>image/svg+xml</dc:format>
        <dc:type
           rdf:resource="http://purl.org/dc/dcmitype/StillImage" />
        <dc:title></dc:title>
      </cc:Work>
    </rdf:RDF>
  </metadata>
  <g
     id="layer1"
     inkscape:groupmode="layer"
     inkscape:label="Layer 1">
    <g
       transform="translate(106.21131,-78.619048)"
       id="g847">
      <path
         id="path849"
         d="m -4.1890174,273.36452 c -0.46939,-0.4977 -1.4045229,-1.97191 -2.0780759,-3.27604 -3.0785301,-5.9606 -8.3108717,-11.4017 -13.4028497,-13.9376 -2.327704,-1.15924 -3.175,-1.86676 -3.175,-2.65125 0,-0.72348 0.647443,-1.30686 3.439583,-3.09925 2.78714,-1.78919 5.600185,-4.72124 6.641608,-6.9226 1.310611,-2.77036 0.942354,-5.35538 -1.093189,-7.67373 -1.378919,-1.5705 -3.332097,-2.94914 -11.104669,-7.83817 -9.619097,-6.05051 -14.18567,-9.06529 -17.406168,-11.49126 -1.461019,-1.10057 -2.794037,-2.00103 -2.962259,-2.00103 -0.485765,0 -4.7345,3.40583 -6.601286,5.29166 -4.457367,4.50285 -6.204262,8.35008 -4.919546,10.83445 0.59283,1.14641 2.807303,2.95187 5.826514,4.75037 3.492103,2.08019 3.962027,2.66175 3.055464,3.7813 -0.461399,0.56981 -0.737195,0.61645 -4.550797,0.7697 -3.144499,0.12636 -4.670687,0.32155 -6.770333,0.86587 -5.092376,1.32016 -10.226222,3.40101 -18.122452,7.34541 -5.042513,2.51888 -6.18546,2.80752 -7.357843,1.85818 -0.567638,-0.45964 -0.582826,-0.55721 -0.276249,-1.77474 0.178426,-0.70859 0.786605,-2.37428 1.351507,-3.70152 1.1617,-2.72942 1.935579,-5.56276 2.418328,-8.85402 0.388371,-2.64781 0.455296,-10.43787 0.120618,-14.04007 -0.269977,-2.90582 -0.03081,-3.9985 1.152477,-5.26521 0.41259,-0.44168 1.014831,-0.80305 1.338313,-0.80305 0.323482,0 1.522676,0.42195 2.664874,0.93767 4.7776,2.15714 7.840516,1.2707 12.810922,-3.70762 3.18684,-3.19192 9.227579,-10.70424 10.309992,-12.82162 0.632947,-1.23814 0.442447,-2.53988 -1.073724,-7.33708 -1.598856,-5.05882 -2.438615,-6.8988 -3.844828,-8.42436 -2.263671,-2.45579 -4.395561,-2.95932 -9.053624,-2.13837 -2.687787,0.47371 -3.775006,0.21195 -4.29569,-1.03422 -0.49921,-1.19478 -0.175787,-2.85598 1.501235,-7.71085 1.713671,-4.96096 3.507957,-9.13124 5.949056,-13.82678 2.316306,-4.4555 3.411761,-6.0701 4.263395,-6.28385 1.152303,-0.28921 5.030865,1.71679 11.321062,5.85526 4.271655,2.81043 6.663886,4.62284 10.693633,8.10175 2.944056,2.54163 3.594796,3.3681 3.323929,4.22152 -0.175832,0.554 -0.48372,0.66711 -2.508187,0.92138 -2.701253,0.33928 -5.897012,1.82861 -6.764415,3.15243 -0.669223,1.02136 -0.784989,3.55237 -0.263554,5.76213 0.48346,2.04882 3.50496,8.53565 4.318942,9.2723 0.450329,0.40753 0.700429,0.41068 3.252082,0.0408 7.97959,-1.15657 16.232474,-3.96357 23.434715,-7.9707 l 2.7451476,-1.52733 v -1.08753 c 0,-2.02185 -1.2869916,-4.01888 -4.5386946,-7.04268 -1.60574,-1.4932 -3.14643,-3.15968 -3.423751,-3.70327 -1.158631,-2.27111 -0.354734,-4.89625 2.537257,-8.28548 3.514212,-4.11844 4.666858,-6.56475 5.5930376,-11.87035 0.611063,-3.50047 0.373851,-11.56923 -0.4327606,-14.72028 -1.156478,-4.5178 -4.027723,-8.99919 -6.609805,-10.31647 -3.558892,-1.81562 -9.696998,-1.02689 -13.001004,1.67059 -0.74458,0.60789 -1.667065,1.31299 -2.049968,1.56689 -0.809834,0.53698 -3.200617,0.63227 -3.685979,0.14691 -1.006808,-1.00681 0.192805,-4.59071 2.868292,-8.56917 2.877032,-4.27815 5.941137,-6.7808 9.911084,-8.09501 1.618858,-0.5359 2.351852,-0.61098 5.820833,-0.5962 4.637363,0.0198 7.4346836,0.58074 10.4382917,2.09333 1.018392,0.51286 2.2215889,0.93247 2.6737789,0.93247 0.45218,0 1.67555,-0.3767 2.71858,-0.83711 6.7473203,-2.97833 15.1980904,-2.99553 20.2638304,-0.0412 1.51721,0.88483 4.25698,3.47702 5.63672,5.3331 1.43823,1.93477 3.54254,5.62449 4.03501,7.07503 0.67666,1.99305 0.0947,3.0223 -1.70883,3.0223 -1.08026,0 -2.22521,-0.60852 -3.79895,-2.01907 -2.18359,-1.95718 -6.6052,-3.04604 -10.08593,-2.48375 -3.6051601,0.5824 -6.1507901,2.75599 -8.2173001,7.01636 -1.7356303,3.57822 -2.2564103,5.87961 -2.4289303,10.73379 -0.22511,6.33364 0.47844,11.05791 2.2895503,15.37409 0.59855,1.42645 1.48569,2.74106 3.36112,4.98067 2.7969001,3.34002 3.2657701,4.18504 3.2657701,5.88575 0,1.433 -0.25064,1.79607 -3.6994001,5.35904 -3.00407,3.10354 -4.1022803,4.86372 -4.4001103,7.05239 -0.1644,1.20809 -0.14687,1.24658 0.9196903,2.01919 4.01104,2.90558 15.2093501,7.0257 22.4858001,8.27304 1.65157,0.28311 3.63981,0.51475 4.4183,0.51475 1.29226,0 1.4738,-0.0765 2.0858,-0.87886 1.33274,-1.74732 3.34528,-6.75958 4.24352,-10.56856 0.48139,-2.0413 0.15583,-3.17835 -1.31584,-4.59583 -1.27478,-1.22784 -2.61022,-1.75221 -5.9289,-2.32803 -1.22404,-0.21238 -2.40033,-0.56097 -2.614,-0.77463 -0.94517,-0.94517 0.3381,-2.61389 4.96281,-6.45345 4.17842,-3.46904 8.16472,-6.16148 13.93931,-9.41494 5.12908,-2.88978 5.94023,-3.09767 7.03058,-1.80186 0.83862,0.99664 6.12787,10.90227 7.43797,13.9297 0.56675,1.30969 1.62482,4.15617 2.35126,6.32552 1.16227,3.47085 1.30784,4.14786 1.21279,5.64051 -0.0689,1.0821 -0.24674,1.79146 -0.49119,1.95924 -0.24039,0.165 -1.31981,0.18742 -2.89672,0.0602 -5.79648,-0.46776 -7.37011,-0.13303 -9.53033,2.02718 -1.55554,1.55554 -2.682,4.17136 -4.25029,9.86982 l -1.34172,4.87521 0.79216,1.55451 c 1.67588,3.28863 5.99785,8.69744 10.04846,12.5753 2.90336,2.77953 6.42129,4.98646 7.94865,4.98649 0.48885,1e-5 2.14837,-0.54844 3.68784,-1.21877 2.30559,-1.00392 2.9884,-1.19338 3.87328,-1.07469 2.18395,0.29293 2.98645,2.2462 2.62715,6.39451 -0.4172,4.81688 -0.22445,11.56999 0.41912,14.68438 0.71402,3.4553 1.82315,6.81252 3.06599,9.28047 1.02519,2.03577 1.20848,3.14511 0.63401,3.8373 -0.62805,0.75676 -2.47252,0.29814 -6.34146,-1.57678 -1.95969,-0.94969 -5.58713,-2.57708 -8.06099,-3.61644 -9.77914,-4.10858 -12.03824,-4.74531 -17.4625,-4.92176 -4.24613,-0.13813 -5.30807,-0.36878 -5.57537,-1.21096 -0.27097,-0.85373 0.59559,-1.71631 3.7628,-3.74552 1.61626,-1.03552 3.30656,-2.19931 3.75624,-2.5862 1.30167,-1.11991 2.15805,-2.56593 2.15156,-3.63297 -0.0114,-1.8744 -1.99323,-5.13966 -5.1127,-8.42364 -2.10607,-2.21715 -6.13715,-5.36392 -6.87128,-5.36392 -0.26433,0 -2.05031,1.17299 -3.96884,2.60665 -1.91854,1.43365 -5.03605,3.65689 -6.92783,4.94052 -1.89177,1.28363 -4.57067,3.13003 -5.95312,4.10311 -1.38245,0.97308 -3.40651,2.28169 -4.49792,2.90802 -3.55001,2.03727 -8.6003201,5.46999 -9.8861101,6.71964 -4.6139903,4.48428 -2.142,10.33349 6.7020501,15.85836 2.88304,1.80103 2.75725,2.66872 -0.68426,4.71969 -5.4487401,3.2472 -9.7738301,7.935 -13.86654035,15.02943 -0.62962,1.09141 -1.38245,2.25227 -1.67295005,2.57969 -0.79891,0.90045 -1.91617,0.78307 -2.94668,-0.30959 z m 2.40504,-6.63826 c 0.36519,-0.36519 0.84728005,-1.10266 1.07130005,-1.63882 1.09833,-2.62868 4.48043995,-6.74735 6.97190025,-8.49025 2.11302,-1.47817 3.43959,-2.69241 3.43959,-3.14837 0,-0.18913 -0.78135,-1.19528 -1.73632,-2.2359 -1.85015,-2.01608 -3.37916,-4.13673 -4.3281603,-6.00293 -0.84146,-1.65472 -1.60844,-4.89756 -1.60844,-6.80055 0,-1.61949 0.0219,-1.66859 1.46047,-3.28087 2.4956003,-2.79687 4.8528703,-4.72233 9.6520304,-7.88394 2.54661,-1.67767 5.97312,-3.95755 7.61446,-5.0664 1.64134,-1.10886 4.99784,-3.32579 7.45887,-4.92652 5.73286,-3.72882 7.9341,-5.56626 9.41988,-7.86304 2.38788,-3.69127 3.1985,-5.7974 5.2904,-13.74533 1.66906,-6.34137 2.68,-9.33903 4.08939,-12.126 2.30462,-4.5572 4.11971,-5.58962 11.50304,-6.54292 l 1.5875,-0.20497 -0.0941,-1.0551 c -0.17242,-1.93386 -2.34424,-6.77987 -4.85687,-10.8372 -1.68805,-2.72583 -4.08584,-5.70148 -4.59426,-5.70148 -1.84262,0 -15.45792,9.3444 -15.45792,10.60902 0,0.12258 0.92273,0.649 2.05052,1.16983 2.26021,1.0438 3.64084,2.19215 4.19873,3.49234 1.2037,2.80523 -0.76127,10.06564 -4.92528,18.1986 -3.81412,7.44954 -7.80995,12.65566 -12.61399,16.43462 -3.01848,2.3744 -4.17289,2.85067 -6.06279,2.50131 -0.81098,-0.14992 -2.09016,-0.60135 -2.84263,-1.00319 -1.77544,-0.94812 -5.7490701,-4.93114 -7.5570001,-7.57484 -2.68726,-3.92956 -5.8861103,-10.09832 -7.22336025,-13.92977 -1.54752005,-4.43391 -2.02512005,-9.04511 -1.17437005,-11.33845 0.60274005,-1.62477 2.45465,-4.31028 4.67926,-6.78551 1.0463003,-1.16417 2.0882403,-2.50323 2.3154303,-2.9757 0.65697,-1.36622 -0.0748,-3.24895 -2.3691103,-6.0957 -2.13854,-2.65343 -2.80386995,-3.85813 -3.75748995,-6.8036 -1.38846005,-4.28857 -1.62894005,-6.1497 -1.60680005,-12.43542 0.0198,-5.62426 0.048,-5.92497 0.83536005,-8.90447 2.71662995,-10.28058 8.53470025,-15.42952 16.92895035,-14.98197 1.75916,0.0938 2.70104,0.29454 3.8778,0.82651 2.67627,1.20985 2.98212,0.84821 0.97778,-1.15613 -2.73353,-2.73353 -5.65631,-3.96207 -9.42607,-3.96207 -2.5921701,0 -3.7106001,0.21099 -8.8487004,1.66931 -5.42261,1.53906 -6.77575,1.51596 -12.038537,-0.20554 -3.8020516,-1.24368 -4.0965516,-1.29863 -7.0114586,-1.30833 -4.745985,-0.0158 -7.701069,1.00749 -10.517188,3.64188 -1.485429,1.38957 -1.096534,1.50274 2.050521,0.59668 4.357526,-1.25456 9.717194,0.23388 13.519939,3.75464 1.5198696,1.40716 2.0595346,2.14547 3.0371806,4.15514 2.4728441,5.08323 3.610357,12.5303 3.0347611,19.86797 -0.656709,8.37165 -1.9278761,11.96856 -5.6119897,15.87977 -2.355117,2.50028 -2.910978,3.74211 -2.319616,5.18218 0.197308,0.48048 1.753148,2.33168 3.4574216,4.11377 3.8944581,4.07229 4.4838941,5.17151 4.6688111,8.70676 0.2204429,4.21444 -0.805026,8.31037 -3.5106421,14.02225 -3.5539156,7.50272 -7.2803336,12.57491 -11.3677726,15.47316 -3.240046,2.29739 -5.054908,2.4828 -7.887447,0.8058 -4.86388,-2.87966 -9.60342,-8.50946 -14.183882,-16.84814 -3.777512,-6.87693 -5.555099,-12.00311 -5.782223,-16.67469 l -0.141787,-2.91636 1.599583,-1.48093 c 0.92559,-0.85693 2.222082,-1.73894 3.076957,-2.09327 0.968428,-0.40139 1.477372,-0.76625 1.477372,-1.05912 0,-0.52177 -1.807551,-2.25271 -3.470333,-3.32323 -0.637932,-0.41071 -2.783674,-1.91108 -4.768316,-3.33416 -5.165323,-3.70377 -6.88838,-4.35309 -8.09647,-3.05106 -0.507571,0.54704 -3.298596,4.9577 -4.729789,7.47448 -0.790541,1.39019 -2.578557,5.70675 -3.115991,7.5225 -0.713787,2.41159 -0.79615,2.32302 2.286627,2.45886 3.790276,0.16703 5.357271,0.80394 7.606772,3.09182 2.488964,2.53144 4.169325,6.23181 6.084385,13.39859 2.109306,7.89371 3.202043,11.10505 4.804751,14.12026 1.926339,3.62406 3.053361,4.67032 9.086906,8.43577 1.891771,1.18063 5.106459,3.33606 7.14375,4.78985 2.037292,1.45379 5.132917,3.50226 6.879167,4.55214 5.038106,3.02903 10.453842,6.68117 12.081193,8.14705 1.8525246,1.66871 2.6031826,3.13384 2.6031826,5.0809 0,3.80796 -1.842379,7.676 -5.9453436,12.48217 -1.301004,1.52398 -1.715416,2.19263 -1.594689,2.573 0.08971,0.28267 1.138312,1.21843 2.33022,2.07949 3.3037536,2.38668 6.6811127,6.20032 8.2776946,9.34701 0.57159,1.12653 1.20909,1.77121 1.77279,1.79276 0.11575,0.004 0.50926,-0.29075 0.87446,-0.65595 z m -4.6567989,-37.75935 c -3.6638727,-1.284 -6.1198867,-3.34058 -7.5131317,-6.29124 -0.726972,-1.53961 -0.812533,-1.98313 -0.816647,-4.23333 -0.0053,-2.90771 0.327787,-4.21726 1.520354,-5.97706 1.8376,-2.71163 5.3603676,-4.20432 9.8521336,-4.17463 5.41009,0.0358 9.6338403,2.20747 11.4378103,5.88091 0.6526,1.32888 0.73302,1.78295 0.73302,4.13848 0,2.43037 -0.0693,2.79209 -0.85065,4.44172 -1.08687,2.29461 -3.39968,4.74463 -5.4993503,5.82563 -1.42436995,0.73332 -1.87296995,0.82629 -4.36562,0.90476 -2.35791,0.0742 -3.03826,-0.004 -4.4979189,-0.51524 z m 5.72566895,-3.92796 c 2.22613995,-1.07766 3.80795995,-3.58371 3.99676995,-6.33203 0.10397,-1.51341 0.0264,-1.89442 -0.64645,-3.175 -1.52434,-2.90115 -4.7057,-3.93974 -7.8116749,-2.55018 -1.679218,0.75125 -2.6314291,1.60516 -3.3227831,2.97978 -0.733121,1.45767 -0.905409,2.73465 -0.576114,4.2701 0.885756,4.13014 4.941542,6.4623 8.36025205,4.80733 z M -74.955909,241.97318 c 5.845618,-2.58453 13.263703,-4.97259 16.877767,-5.43336 1.780302,-0.22698 2.021676,-0.71747 0.810527,-1.64708 -2.716222,-2.08481 -3.935369,-4.25129 -3.939328,-7.00034 -0.0029,-1.98899 0.492583,-3.22267 2.466935,-6.14277 1.429444,-2.11417 3.131138,-3.89657 6.790897,-7.11297 3.280077,-2.88271 3.94629,-3.5634 3.959947,-4.046 0.0048,-0.17107 -0.455027,-1.27019 -1.021934,-2.44248 -0.566904,-1.17228 -1.156023,-2.49083 -1.309153,-2.9301 -0.153128,-0.43926 -0.446149,-0.79866 -0.651156,-0.79866 -0.205007,0 -1.750174,1.8157 -3.433704,4.03489 -5.007583,6.60089 -8.607164,10.30861 -12.014854,12.37583 -1.98565,1.20456 -2.96329,1.25356 -5.589384,0.2801 -1.210474,-0.4487 -2.59488,-0.81582 -3.076457,-0.81582 -1.84601,0 -2.06693,1.00958 -2.113244,9.65729 -0.03385,6.3203 -0.105699,7.44447 -0.623327,9.75256 -0.625025,2.78698 -0.710357,3.6089 -0.374678,3.6089 0.115715,0 1.574231,-0.603 3.241146,-1.33999 z m 147.722062,0.60414 c 0.0702,-0.11367 -0.0464,-1.03641 -0.2592,-2.05052 -0.82669,-3.93943 -1.19455,-8.62944 -1.11053,-14.15845 0.0722,-4.75116 0.0262,-5.52151 -0.36523,-6.11907 -0.71813,-1.09624 -1.55148,-1.13217 -4.12952,-0.17806 -2.97142,1.09971 -4.46447,1.12038 -6.36115,0.0881 -2.68063,-1.45898 -9.07699,-8.08363 -13.29422,-13.76869 -1.02013,-1.37519 -2.01284,-2.50035 -2.20602,-2.50035 -0.19318,0 -0.70957,0.86321 -1.14752,1.91823 -0.43795,1.05503 -1.10419,2.59881 -1.48053,3.43063 l -0.68425,1.51241 1.49563,1.26572 c 7.28048,6.16133 10.41719,9.67955 11.80739,13.24347 1.12496,2.88395 0.092,6.05884 -2.81337,8.64682 -1.02226,0.91061 -1.5335,1.54089 -1.37088,1.69008 0.14264,0.13086 1.3567,0.43371 2.6979,0.673 4.80713,0.85765 11.57996,3.10391 16.74374,5.55317 2.15353,1.02145 2.28708,1.06206 2.47776,0.75354 z m -95.438069,-35.91287 c 1.456608,-0.72586 3.795723,-2.86432 3.795723,-3.47012 0,-0.6157 -0.692113,-0.71083 -2.990138,-0.411 -3.769009,0.49177 -6.799446,1.70888 -6.799446,2.73087 0,0.15422 0.369779,0.62584 0.821733,1.04802 0.707747,0.66114 1.030843,0.76762 2.329299,0.76762 1.080093,0 1.886188,-0.18868 2.842829,-0.66539 z m 43.480299,0.005 c 0.73928,-0.3823 1.59043,-1.34282 1.59043,-1.79481 0,-0.30269 -2.65998,-1.49509 -4.32295,-1.93787 -1.96884,-0.52421 -5.43501,-0.49557 -5.64307,0.0466 -0.22341,0.5822 1.82871,2.6116 3.46574,3.42737 1.52939,0.76213 3.71375,0.87722 4.90985,0.25869 z M -27.807079,200.332 c 4.700706,-1.57518 7.105449,-2.12923 10.476886,-2.41387 2.205305,-0.18619 2.208231,-0.18744 2.99865,-1.27454 1.909591,-2.62636 4.122592,-8.53405 3.449111,-9.20753 -0.198257,-0.19825 -0.851611,-0.0436 -2.219145,0.52512 -3.992435,1.66051 -13.466242,4.68599 -20.525137,6.55477 -3.187513,0.84386 -3.225216,0.91773 -1.728222,3.38612 0.849874,1.40135 2.859413,3.87107 3.149783,3.87107 0.05357,0 2.032699,-0.64851 4.398074,-1.44114 z m 54.189812,0.58124 c 1.89087,-1.99247 3.95793,-5.59159 3.48373,-6.06578 -0.1328,-0.1328 -2.73055,-0.88114 -5.77278,-1.66298 -6.49848,-1.67008 -11.07084,-3.08925 -15.9369201,-4.94651 -2.50515,-0.95615 -3.60843,-1.26394 -3.80958,-1.06279 -0.6274903,0.62749 0.707,4.9289 2.37786,7.66446 1.62302,2.65725 1.98256,2.96475 3.4665301,2.96475 2.7413,0 6.88346,0.93907 12.33953,2.7975 1.45521,0.49566 2.79002,0.90244 2.96625,0.90394 0.17624,0.002 0.57466,-0.26517 0.88538,-0.59259 z"
         style="fill:#ffb100;fill-opacity:1;stroke-width:0.264583" />
    </g>
  </g>
</svg>
